<?xml version="1.0" standalone="no"?>
<!DOCTYPE svg PUBLIC "-//W3C//DTD SVG 20010904//EN"
 "http://www.w3.org/TR/2001/REC-SVG-20010904/DTD/svg10.dtd">
<svg version="1.0" xmlns="http://www.w3.org/2000/svg"
 width="160.000000pt" height="160.000000pt" viewBox="0 0 160.000000 160.000000"
 preserveAspectRatio="xMidYMid meet">
<metadata>
Created by potrace 1.11, written by Peter Selinger 2001-2013
</metadata>
<g transform="translate(0.000000,160.000000) scale(0.100000,-0.100000)"
fill="#000000" stroke="none">
<path d="M630 1559 c-62 -25 -72 -61 -47 -170 19 -80 13 -211 -12 -284 -26
-75 -101 -185 -153 -226 -37 -30 -42 -31 -101 -25 -34 3 -84 8 -112 11 -71 7
-108 -18 -145 -97 -66 -147 -22 -414 91 -542 41 -47 82 -54 157 -28 112 41
129 43 206 22 39 -10 109 -24 156 -30 148 -19 164 -21 210 -32 25 -5 54 -12
65 -14 11 -2 65 -15 120 -30 55 -14 107 -27 115 -29 50 -13 232 -48 267 -52
66 -7 117 32 129 99 8 39 -42 75 -149 108 -56 17 -109 34 -117 37 -11 3 -8 10
14 25 42 32 66 91 54 137 -5 20 -19 44 -30 54 -11 10 -19 19 -17 20 2 2 17 9
32 17 41 20 68 77 58 121 -10 45 -27 75 -51 92 -19 13 -19 14 11 36 37 27 57
72 53 114 -8 65 -44 94 -204 167 -84 39 -103 44 -165 44 -64 -1 -118 -6 -186
-20 l-26 -5 9 53 c31 180 8 310 -66 380 -49 46 -119 66 -166 47z"/>
</g>
</svg>
